<?xml version="1.0" encoding="UTF-8"?>
<svg width="1000pt" height="1000pt" fill="#FFFFFF" version="1.1" viewBox="0 0 1200 1200" xmlns="http://www.w3.org/2000/svg">
 <path d="m249.72 1035c-0.125 35.852 14.012 70.277 39.293 95.695 25.285 25.414 59.641 39.73 95.492 39.785 35.852 0.058593 70.25-14.145 95.617-39.48l430.68-431.16c25.449-25.445 39.664-60.012 39.48-96v-4.4414c1.3125-37.301-12.945-73.469-39.359-99.84l-430.92-430.08c-34.375-32.688-83.379-44.938-129.09-32.266-45.711 12.668-81.418 48.398-94.059 94.117-12.641 45.719-0.35937 94.715 32.348 129.07l339.6 339.6-339.6 339.6c-25.301 25.297-39.508 59.617-39.48 95.398z"/>
</svg>
